<?xml version="1.0" encoding="iso-8859-1"?>
<!-- Generator: Adobe Illustrator 19.0.0, SVG Export Plug-In . SVG Version: 6.00 Build 0)  -->
<svg version="1.1" id="Capa_1" xmlns="http://www.w3.org/2000/svg" xmlns:xlink="http://www.w3.org/1999/xlink" x="0px" y="0px"
	 viewBox="0 0 462.4 462.4" style="enable-background:new 0 0 462.4 462.4;" xml:space="preserve">
<g>
	<g>
		<path d="M352,142C352,63.6,298,0,231.2,0S110.4,64,110.4,142.4c0,68.8,42,126.4,97.2,139.6l-14,34.4c-0.8,2-0.4,4,0.4,5.6
			c1.2,1.6,2.8,2.8,4.8,2.8H218c-9.2,18-15.6,45.6,6.8,62.8c24.4,18.8-7.6,64.8-8,65.2c-2,2.8-1.2,6.4,1.6,8.4
			c1.2,0.8,2.4,1.2,3.6,1.2c2,0,3.6-0.8,4.8-2.4c1.6-2.4,38.8-56,5.2-81.6c-21.2-16-5.6-44.4-0.4-53.2h25.2c2,0,4-1.2,5.2-2.8
			s1.2-4,0.4-5.6l-13.2-34C307.2,272.8,352,213.6,352,142z M208,312.4l11.6-28.8c4,0.4,7.6,0.8,11.6,0.8c2,0,3.6,0,5.2,0l12,28H208z
			 M231.2,272.4c-60,0-108.8-58.4-108.8-130.4c0-71.6,48.8-130,108.8-130S340,70.4,340,142.4C340,214,291.2,272.4,231.2,272.4z"/>
	</g>
</g>
<g>
</g>
<g>
</g>
<g>
</g>
<g>
</g>
<g>
</g>
<g>
</g>
<g>
</g>
<g>
</g>
<g>
</g>
<g>
</g>
<g>
</g>
<g>
</g>
<g>
</g>
<g>
</g>
<g>
</g>
</svg>
